<?xml version="1.0" encoding="utf-8"?>
<!-- Generator: Adobe Illustrator 24.2.1, SVG Export Plug-In . SVG Version: 6.00 Build 0)  -->
<svg version="1.1" id="Layer_1" xmlns="http://www.w3.org/2000/svg" xmlns:xlink="http://www.w3.org/1999/xlink" x="0px" y="0px" viewBox="0 0 50 50" style="enable-background:new 0 0 50 50;" xml:space="preserve">
	<style type="text/css">
		.st0{stroke:#000000;stroke-width:0.3;stroke-miterlimit:10;}
	</style>
	<path class="st0" d="M47.8,37.2l-3.5-3.5c0,0,0,0-0.1,0c0,0,0,0-0.1,0l-2.3-2.3l-5.8-5.8l11-11c1.6-1.6,1.6-4.2,0-5.8c0,0,0,0,0,0l-5.8-5.8c-1.6-1.6-4.2-1.6-5.8,0L27.4,11l-2.9,2.9l-6.8-6.8l-0.3-0.3l-0.2-0.1L7.5,3L2.3,1C2,0.9,1.6,0.9,1.4,1.2C1.2,1.4,1.1,1.8,1.2,2.1l2,5.2v0l0,0.1L7,17c0.1,0.2,0.2,0.4,0.3,0.5l6.8,6.8l-4,4c0,0-0.1,0.1-0.1,0.1l-3.4,3.4c0,0-0.1,0.1-0.1,0.1L3,35.4c0,0-0.1,0.1-0.1,0.1l-1.1,1c-1.6,1.6-1.6,4.2,0,5.8c0,0,0,0,0,0l5.8,5.8c1.6,1.6,4.2,1.6,5.8,0c0,0,0,0,0,0l12.2-12.2l8.2,8.2c0,0,0,0,0,0.1l3.5,3.5c0.8,0.8,1.8,1.2,2.9,1.2c1.1,0,2.1-0.4,2.9-1.2l4.6-4.6C49.5,41.4,49.5,38.8,47.8,37.2C47.9,37.2,47.9,37.2,47.8,37.2z M28,12.7l1.7,1.7c0.3,0.3,0.9,0.2,1.2-0.1c0.3-0.3,0.3-0.8,0-1.1l-1.7-1.7l2.3-2.3l1.7,1.7c0.2,0.1,0.4,0.2,0.6,0.2c0.2,0,0.4-0.1,0.6-0.2c0.3-0.3,0.3-0.8,0-1.2l-1.8-1.7l2.3-2.3L39,9.8c0.2,0.2,0.4,0.2,0.6,0.2c0.2,0,0.4-0.1,0.6-0.2c0.3-0.3,0.3-0.8,0-1.2c0,0,0,0,0,0l-4.1-4.1L36.7,4c1-1,2.5-1,3.5,0L46,9.8c1,1,1,2.5,0,3.5l-11,11L25.7,15L28,12.7z M23.8,15.5c0,0.1,0.1,0.1,0.1,0.2l0,0l0.6,0.6l4.1,4.1c0,0.1,0.1,0.1,0.2,0.1l5.1,5.1l0.6,0.6l0.6,0.6l5.2,5.2L39,33l-5.2-5.2h0l-0.6-0.6v0l-0.6-0.6v0l-9.3-9.3v0l-0.6-0.6v0l-0.6-0.6h0l-3.6-3.6v0c-0.5-0.5-0.7-1.1-0.7-1.7V9.6l5.5,5.5L23.8,15.5z M34.4,37.6l-5.2-5.2h0l-0.6-0.6v0L28,31.3v0L18.7,22v0l-0.6-0.6v0l-0.6-0.6h0L14,17.2l0,0c-0.4-0.5-0.7-1.1-0.7-1.7v-1.6c0-0.5,0.4-0.8,0.8-0.8h1.6c0.6,0,1.2,0.2,1.7,0.7l0.1,0.1l3.6,3.6l0.6,0.6l0,0l0.6,0.6l0,0l9.3,9.3l0.6,0.6l0.6,0.6l5.2,5.2L34.4,37.6z M6.2,4.3C5.8,5,5.2,5.6,4.4,6L3.4,3.2L6.2,4.3z M7.7,4.9l8.5,3.3v2.7c0,0.2,0,0.4,0,0.6c-0.2,0-0.4,0-0.6,0h-1.6c-1.4,0-2.5,1.1-2.5,2.5v1.6c0,0.2,0,0.4,0,0.6c-0.2,0-0.4,0-0.6,0H8.3L5.1,7.5C6.2,6.9,7.1,6,7.7,4.9z M12.3,47c-1,0.9-2.5,0.9-3.5,0L3,41.2c-1-1-1-2.5,0-3.5l0.6-0.6l4.1,4.1c0.3,0.3,0.8,0.3,1.1,0c0,0,0,0,0,0c0.3-0.3,0.3-0.8,0-1.2L4.7,36l2.3-2.3l1.7,1.8c0.2,0.1,0.4,0.2,0.6,0.2c0.2,0,0.4-0.1,0.6-0.2c0.3-0.3,0.3-0.8,0-1.2l-1.7-1.7l2.3-2.3l1.7,1.7c0.2,0.2,0.4,0.2,0.6,0.2c0.2,0,0.4-0.1,0.6-0.2c0.3-0.3,0.3-0.8,0-1.2L11.7,29l3.5-3.5l9.3,9.3L12.3,47zM26.3,34.2l-0.6-0.6l-9.3-9.3l-0.6-0.6l-0.6-0.6l-5.5-5.5H11c0.7,0,1.3,0.3,1.7,0.7l3.6,3.6l0.4,0.4c0,0.1,0.1,0.1,0.1,0.2l0.6,0.6l1.7,1.7c0,0.1,0.1,0.1,0.2,0.1l7.4,7.4l0.6,0.6l0.6,0.6l5.2,5.2L32,40l-5.2-5.2L26.3,34.2z M33.2,41.1l1.7-1.7l0.1-0.1l4.6-4.6l0.1-0.1l1.7-1.7l1.3,1.3l-8.1,8.1L33.2,41.1z M46.7,41.8L42,46.5c-1,1-2.5,1-3.5,0c0,0,0,0,0,0l-2.9-2.9l8.1-8.1l2.9,2.9C47.6,39.3,47.7,40.9,46.7,41.8C46.7,41.8,46.7,41.8,46.7,41.8z"/>
</svg>
