<?xml version="1.0" encoding="utf-8"?>
<!-- Generator: Adobe Illustrator 24.2.1, SVG Export Plug-In . SVG Version: 6.00 Build 0)  -->
<svg version="1.1" id="Layer_1" xmlns="http://www.w3.org/2000/svg" xmlns:xlink="http://www.w3.org/1999/xlink" x="0px" y="0px" viewBox="0 0 50 50" style="enable-background:new 0 0 50 50;" xml:space="preserve">
	<g>
		<circle cx="6" cy="5" r="1"/>
		<circle cx="10" cy="5" r="1"/>
		<circle cx="14" cy="5" r="1"/>
		<path d="M48,36h-1.6c0,0,0-0.1,0-0.1l1.1-1.1c0.2-0.2,0.3-0.4,0.3-0.7c0-0.3-0.1-0.5-0.3-0.7L45,30.9V5c0-2.2-1.8-4-4-4H5C2.8,1,1,2.8,1,5v35c0,0.6,0.4,1,1,1h27c0,0.6,0.4,1,1,1h1.6c0,0,0,0.1,0,0.1l-1.1,1.1c-0.2,0.2-0.3,0.4-0.3,0.7c0,0.3,0.1,0.5,0.3,0.7l2.8,2.8c0.4,0.4,1,0.4,1.4,0c0,0,0,0,0,0l1.1-1.1l0.1,0V48c0,0.6,0.4,1,1,1h4c0.6,0,1-0.4,1-1v-1.6l0.1,0l1.1,1.1c0.2,0.2,0.4,0.3,0.7,0.3c0.3,0,0.5-0.1,0.7-0.3l2.8-2.8c0.2-0.2,0.3-0.4,0.3-0.7c0-0.3-0.1-0.5-0.3-0.7l-1.1-1.1c0,0,0-0.1,0-0.1H48c0.6,0,1-0.4,1-1v-4C49,36.4,48.6,36,48,36z M3,5c0-1.1,0.9-2,2-2h36c1.1,0,2,0.9,2,2v2H3V5z M3,39V9h40v21.8l-0.9,0.9L42,31.6V30c0-0.6-0.4-1-1-1h-4c-0.6,0-1,0.4-1,1v1.6l-0.1,0l-1.1-1.1c-0.2-0.2-0.4-0.3-0.7-0.3c-0.3,0-0.5,0.1-0.7,0.3l-2.8,2.8c-0.2,0.2-0.3,0.4-0.3,0.7c0,0.3,0.1,0.5,0.3,0.7l1.1,1.1c0,0,0,0.1,0,0.1H30c-0.6,0-1,0.4-1,1v2L3,39z M47,40h-1.3c-0.5,0-0.9,0.3-1,0.7c-0.1,0.4-0.3,0.8-0.5,1.1c-0.2,0.4-0.1,0.9,0.2,1.2l0.9,0.9L44,45.4l-1-0.9c-0.3-0.3-0.8-0.4-1.2-0.2c-0.4,0.2-0.7,0.4-1.1,0.5c-0.4,0.1-0.7,0.5-0.7,1V47h-2v-1.3c0-0.5-0.3-0.9-0.7-1c-0.4-0.1-0.8-0.3-1.1-0.5c-0.4-0.2-0.9-0.1-1.2,0.2l-0.9,0.9L32.6,44l0.9-0.9c0.3-0.3,0.4-0.8,0.2-1.2c-0.2-0.4-0.4-0.7-0.5-1.1c-0.1-0.4-0.5-0.7-1-0.7H31V38h1.3c0.5,0,0.9-0.3,1-0.7c0.1-0.4,0.3-0.8,0.5-1.1c0.2-0.4,0.1-0.9-0.2-1.2l-0.9-0.9l1.4-1.4l0.9,0.9c0.3,0.3,0.8,0.4,1.2,0.2c0.4-0.2,0.7-0.4,1.1-0.5c0.4-0.1,0.7-0.5,0.7-1V31h2v1.3c0,0.5,0.3,0.9,0.7,1c0.4,0.1,0.8,0.3,1.1,0.5c0.4,0.2,0.9,0.1,1.2-0.2l0.9-0.9l1.4,1.4L44.4,35c-0.3,0.3-0.4,0.8-0.2,1.2c0.2,0.4,0.4,0.7,0.5,1.1c0.1,0.4,0.5,0.7,1,0.7H47V40z"/>
		<path d="M39,35c-2.2,0-4,1.8-4,4s1.8,4,4,4s4-1.8,4-4S41.2,35,39,35z M39,41c-1.1,0-2-0.9-2-2s0.9-2,2-2s2,0.9,2,2S40.1,41,39,41zM18.7,19.3c-0.4-0.4-1-0.4-1.4,0c0,0,0,0,0,0l-4,4c-0.4,0.4-0.4,1,0,1.4c0,0,0,0,0,0l4,4c0.4,0.4,1,0.4,1.4,0c0,0,0,0,0,0c0.4-0.4,0.4-1,0-1.4c0,0,0,0,0,0L15.4,24l3.3-3.3C19.1,20.3,19.1,19.7,18.7,19.3C18.7,19.3,18.7,19.3,18.7,19.3z M32.7,23.3l-4-4c-0.4-0.4-1-0.4-1.4,0s-0.4,1,0,1.4l3.3,3.3l-3.3,3.3c-0.4,0.4-0.4,1,0,1.4c0,0,0,0,0,0c0.4,0.4,1,0.4,1.4,0c0,0,0,0,0,0l4-4C33.1,24.3,33.1,23.7,32.7,23.3C32.7,23.3,32.7,23.3,32.7,23.3z M24.2,18c-0.5-0.1-1.1,0.2-1.2,0.8c0,0,0,0,0,0l-2,10c-0.1,0.5,0.2,1.1,0.8,1.2c0,0,0,0,0,0H22c0.5,0,0.9-0.3,1-0.8l2-10C25.1,18.7,24.8,18.1,24.2,18C24.2,18,24.2,18,24.2,18z"/>
	</g>
</svg>
