<?xml version="1.0" encoding="utf-8"?>
<!-- Generator: Adobe Illustrator 24.2.1, SVG Export Plug-In . SVG Version: 6.00 Build 0)  -->
<svg version="1.1" id="Layer_1" xmlns="http://www.w3.org/2000/svg" xmlns:xlink="http://www.w3.org/1999/xlink" x="0px" y="0px" viewBox="0 0 50 50" style="enable-background:new 0 0 50 50;" xml:space="preserve">
	<style type="text/css">
		.st0{fill-rule:evenodd;clip-rule:evenodd;}
	</style>
	<path class="st0" d="M5.8,1C3.2,1,1,3.2,1,5.8v38.4C1,46.8,3.2,49,5.8,49h38.4c2.6,0,4.8-2.2,4.8-4.8V5.8C49,3.2,46.8,1,44.2,1H5.8zM5.8,4.2h38.4c0.9,0,1.6,0.7,1.6,1.6v8H15.4c-2.2,0-2.2,3.2,0,3.2h30.4v27.2c0,0.9-0.7,1.6-1.6,1.6H5.8c-0.9,0-1.6-0.7-1.6-1.6V17H9c2.2,0,2.2-3.2,0-3.2H4.2v-8C4.2,4.9,4.9,4.2,5.8,4.2z M9,7.4C8.1,7.4,7.4,8.1,7.4,9c0,0.9,0.7,1.6,1.6,1.6c0.9,0,1.6-0.7,1.6-1.6C10.6,8.1,9.9,7.4,9,7.4z M15.4,7.4c-0.9,0-1.6,0.7-1.6,1.6c0,0.9,0.7,1.6,1.6,1.6c0.9,0,1.6-0.7,1.6-1.6C17,8.1,16.3,7.4,15.4,7.4zM21.8,7.4c-0.9,0-1.6,0.7-1.6,1.6c0,0.9,0.7,1.6,1.6,1.6c0.9,0,1.6-0.7,1.6-1.6C23.4,8.1,22.7,7.4,21.8,7.4z M15.4,23.4c-0.9,0-1.6,0.7-1.6,1.6c0,0.9,0.7,1.6,1.6,1.6c0,0,0,0,0.1,0h19.2c0.9,0,1.6-0.7,1.6-1.6c0-0.9-0.7-1.6-1.6-1.6c0,0,0,0-0.1,0H15.4z M15.2,29.8c-0.9,0-1.6,0.8-1.5,1.7c0,0.9,0.8,1.6,1.7,1.5l0,0h19.2c0.9,0,1.6-0.7,1.6-1.6c0-0.9-0.7-1.6-1.6-1.6H15.4C15.4,29.8,15.3,29.8,15.2,29.8z M15.2,36.2c-0.9,0.1-1.5,0.8-1.5,1.7c0.1,0.9,0.8,1.5,1.6,1.5H25c0.9,0,1.6-0.7,1.6-1.6c0-0.9-0.7-1.6-1.6-1.6c0,0,0,0-0.1,0h-9.6C15.4,36.2,15.3,36.2,15.2,36.2z"/>
</svg>
