<?xml version="1.0" encoding="utf-8"?>
<!-- Generator: Adobe Illustrator 24.2.1, SVG Export Plug-In . SVG Version: 6.00 Build 0)  -->
<svg version="1.1" id="Layer_1" xmlns="http://www.w3.org/2000/svg" xmlns:xlink="http://www.w3.org/1999/xlink" x="0px" y="0px" viewBox="0 0 50 50" style="enable-background:new 0 0 50 50;" xml:space="preserve">
	<path d="M43.2,19C43.4,19,43.4,19,43.2,19l5.7-14.7c0.2-0.3,0-0.6-0.2-0.8c-0.2-0.2-0.6-0.3-0.8-0.2L33.3,8.9l0,0
	c-0.2,0-0.3,0-0.3,0.2L22.8,19.3c-1.1-0.6-2.1-1.1-3-1.6c0-0.5,0-1,0-1.6v-0.3c-0.2-5.1-3.5-8.9-8.5-9.6c-0.6,0-1.3,0-1.9-0.2c-1,0-1.8,0-2.6-0.2C4.9,5.4,2.5,3.5,3,1.2V1.1c0-0.3-0.3-0.6-0.6-0.8c-0.5,0-0.8,0.3-1,0.6c-0.6,3.7-0.5,8,0.8,11.5c1.9,5.6,6.5,9.3,12.9,9.9c0,0,0,0,0.2,0c0.2,0,0.3,0,0.5-0.2c0.3,0.8,0.8,1.8,1.4,2.7l-7.7,7.7l0,0l0,0l-3.7,3.7l-2.2,2.2C2,40,2,42.6,3.6,44l0,0l4.5,4.5c0.8,0.8,1.8,1.1,2.9,1.1l0,0l0,0h0.2c1,0,1.9-0.5,2.7-1.1L26.1,36c0.3,0.3,0.6,0.6,1,1c4,4,8.3,7.5,11.8,9.7c2.6,1.6,4.6,2.6,6.1,2.6c0.6,0,1.3-0.2,1.8-0.6c2.9-2.9-5.3-13.2-11.7-19.6c-0.3-0.3-0.6-0.6-1-1L43.2,19C43.2,19.1,43.2,19,43.2,19z M46.9,5.4l-1.1,2.6c-0.6-0.3-1.3-1-1.6-1.6L46.9,5.4z M33.1,15.6L33.1,15.6c0.5-0.5,1-0.6,1.6-0.6h1.6c0.5,0,0.8,0.3,0.8,0.8v1.6c0,0.6-0.3,1.3-0.6,1.8L30.6,25c-1.3-1.1-2.6-2.1-3.7-3L33.1,15.6z M32.7,12.7c0,0.6-0.2,1.3-0.6,1.6l0,0l-6.5,6.5c-0.5-0.3-1-0.6-1.3-1l8.5-8.5V12.7z M14.9,20.7c-5.6-0.8-9.6-4-11.3-8.8c-0.6-2.2-1-4.6-1-6.9c1,1.1,2.4,2.1,3.8,2.4c1,0.2,2.1,0.2,3,0.2c0.6,0,1.3,0,1.8,0c4,0.5,6.9,3.7,7,8v0.3c0,0.8,0,1.3,0,1.3L14.9,20.7z M18.9,19c1.1,0.5,2.2,1,3.5,1.9c0.8,0.5,1.6,1,2.6,1.8c0,0,0,0,0.2,0c0.8,0.6,1.6,1.3,2.6,1.9c-1,2.2-2.9,4.2-5.1,5.1c-0.6-0.8-1.4-1.8-1.9-2.6c0,0,0,0,0-0.2c-0.6-1-1.3-1.8-1.8-2.6c-0.8-1.3-1.4-2.6-1.9-3.5L18.9,19z M19.9,28.9c1,1.1,1.9,2.4,3,3.7l-6.2,6.2l-3.4-3.4L19.9,28.9z M18,26.3c0.3,0.5,0.6,0.8,1,1.3l-6.7,6.7l-1.1-1.1L18,26.3z M12.5,47.4c-1,1-2.4,1-3.4,0l-4.5-4.5l0,0c-0.2-0.3-0.5-0.5-0.5-0.8l0,0c-0.2-0.3-0.2-0.5-0.2-0.8l0,0l0,0c0-0.3,0-0.6,0.2-0.8l0,0c0.2-0.3,0.3-0.5,0.5-0.8l0,0l2.1-2.1L7.4,37l7.8,7.8L12.5,47.4zM16.5,43.5l-8-8l1.3-1.3l1.6,1.6l0,0l4.5,4.5l0,0l1.6,1.6L16.5,43.5z M17.8,39.9l6.1-6.1c0.3,0.3,0.6,0.8,1.1,1.1L18.9,41L17.8,39.9z M45.4,47.5c-0.3,0.3-1.9,0.3-5.7-2.1c-3.5-2.2-7.5-5.6-11.5-9.6c-0.5-0.5-1-1-1.4-1.4c-0.8-0.8-1.4-1.6-2.1-2.4c-0.3-0.3-0.6-0.6-1-1.1c2.2-1.1,4.2-3,5.3-5.3c0.3,0.3,0.6,0.5,1,0.8l0,0l0,0l0,0c0.8,0.6,1.6,1.4,2.4,2.1c0.5,0.5,1,1,1.4,1.4C43.4,39.7,46.4,46.6,45.4,47.5z M33,27.1c-0.3-0.3-0.8-0.8-1.1-1.1l5.9-5.9c0,0,0,0,0.2-0.2c0.5-0.5,1.1-0.6,1.8-0.6H41L33,27.1zM39.4,17.8c-0.2,0-0.3,0-0.6,0c0-0.2,0-0.3,0-0.6v-1.6c0-1.3-1.1-2.4-2.4-2.4h-1.6c-0.2,0-0.3,0-0.6,0c0-0.2,0-0.3,0-0.6v-2.4L42.4,7c0.5,1.1,1.4,2.1,2.6,2.6l-3.2,8.3H39.4z"/>
</svg>
