<svg xmlns="http://www.w3.org/2000/svg" xmlns:xlink="http://www.w3.org/1999/xlink" viewBox="0 0 951 951">
    <defs>
        <!-- <style>
            .dot, .circle, .halo, .star, .dotted, .triangle, .circle1, .circle2, .circle3, .circle4, .circle5{fill:none;}
            .dot, .circle, .halo, .star, .colored, .dotted, .triangle{stroke:#f4b322;}
            .dot, .dotted, .triangle{stroke-linecap:round;}
            .dot, .circle, .halo, .star, .colored, .circle1, .circle2, .circle3, .cls-10, .cls-12{stroke-miterlimit:10;}
            .dot, .dotted{stroke-width:5px;}
            .dot{stroke-dasharray:0 29.97;}
            .dotted, .triangle{stroke-linejoin:round;}
            .path1{fill:url(#linear-gradient);}
            .circle1{stroke-width:0.2px;stroke:url(#linear-gradient-2);}
            .path2{fill:url(#linear-gradient-2);}
            .circle2{stroke-width:0.4px;stroke:url(#linear-gradient-4);}
            .path3{fill:url(#linear-gradient-4);}
            .circle3{stroke-width:0.6px;stroke:url(#linear-gradient-6);}
            .path4{fill:url(#linear-gradient-6);}
            .circle4{stroke-width:0.8px;stroke:url(#linear-gradient-8);}
            .path5{fill:url(#linear-gradient-8);}
            .circle5{stroke:url(#linear-gradient-10);}
            .colored{fill:#f2ece4;}
            .dotted{stroke-dasharray:0 20.25;}
        </style> -->
        <linearGradient id="linear-gradient" x1="225.5" y1="475.5" x2="725.5" y2="475.5" gradientUnits="userSpaceOnUse">
            <stop offset="0" stop-color="#f4b322"/>
            <stop offset="0.5" stop-color="#f2ece4"/>
            <stop offset="1" stop-color="#f4b322"/>
        </linearGradient>
        <linearGradient id="linear-gradient-2" x1="210.5" y1="475.5" x2="740.5" y2="475.5" xlink:href="#linear-gradient"/>
        <linearGradient id="linear-gradient-4" x1="195.5" y1="475.5" x2="755.5" y2="475.5" xlink:href="#linear-gradient"/>
        <linearGradient id="linear-gradient-6" x1="180.5" y1="475.5" x2="770.5" y2="475.5" xlink:href="#linear-gradient"/>
        <linearGradient id="linear-gradient-8" x1="165.5" y1="475.5" x2="785.5" y2="475.5" xlink:href="#linear-gradient"/>
        <linearGradient id="linear-gradient-10" x1="150" y1="475.5" x2="801" y2="475.5" xlink:href="#linear-gradient"/>
    </defs>
    <g id="element">
        <circle class="dot line" cx="475.5" cy="475.5" r="362.5"/>
        <polygon class="triangle line" points="886.43 238.25 851.93 338.54 942.91 393.08 876.07 475.46 942.8 557.91 851.85 612.5 886.5 712.76 782.39 733.02 780.52 839.07 675.75 822.34 637.85 921.44 545.07 870.03 475.47 950.07 405.98 869.93 313.22 921.4 275.18 822.38 170.42 839.08 168.68 733.02 64.57 712.75 99.07 612.46 8.09 557.91 74.93 475.54 8.2 393.09 99.15 338.5 64.5 238.24 168.61 217.98 170.48 111.93 275.25 128.66 313.15 29.56 405.93 80.97 475.53 0.93 545.02 81.07 637.78 29.6 675.82 128.62 780.58 111.92 782.33 217.98 886.43 238.25"/>
        <path class="path1" d="M475.5,226.5a248.26,248.26,0,1,1-96.92,19.57A247.32,247.32,0,0,1,475.5,226.5m0-1c-138.07,0-250,111.93-250,250s111.93,250,250,250,250-111.93,250-250-111.93-250-250-250Z"/>
        <circle class="circle1 gradient" cx="475.5" cy="475.5" r="265"/>
        <path class="path2" d="M475.5,211.3a263.36,263.36,0,1,1-102.84,20.76A262.65,262.65,0,0,1,475.5,211.3m0-.8c-146.36,0-265,118.64-265,265s118.64,265,265,265,265-118.64,265-265-118.64-265-265-265Z"/>
        <circle class="circle2 gradient" cx="475.5" cy="475.5" r="280"/>
        <path class="path3" d="M475.5,196.1a278.63,278.63,0,1,1-108.75,22,277.59,277.59,0,0,1,108.75-22m0-.6c-154.64,0-280,125.36-280,280s125.36,280,280,280,280-125.36,280-280-125.36-280-280-280Z"/>
        <circle class="circle3 gradient" cx="475.5" cy="475.5" r="295"/>
        <path class="path4" d="M475.5,180.9a293.64,293.64,0,1,1-114.67,23.15A292.79,292.79,0,0,1,475.5,180.9m0-.4c-162.92,0-295,132.08-295,295s132.08,295,295,295,295-132.08,295-295-132.08-295-295-295Z"/>
        <circle class="circle4 gradient" cx="475.5" cy="475.5" r="310"/>
        <path class="path5" d="M475.5,165.7a308.85,308.85,0,1,1-120.59,24.35A307.81,307.81,0,0,1,475.5,165.7m0-.2c-171.21,0-310,138.79-310,310s138.79,310,310,310,310-138.79,310-310-138.79-310-310-310Z"/>
        <circle class="circle5 gradient" cx="475.5" cy="475.5" r="325"/>
    </g>
    <g id="circle">
        <circle class="circle line" cx="475.5" cy="475.5" r="475"/>
        <circle class="circle line" cx="475.5" cy="475.5" r="400"/>
        <circle class="circle line" cx="475.5" cy="475.5" r="325"/>
        <circle class="circle line" cx="475.5" cy="475.5" r="250"/>
    </g>
    <g id="center">
        <line class="halo line" x1="432.09" y1="721.7" x2="518.91" y2="229.3"/>
        <line class="halo line" x1="389.99" y1="710.42" x2="561.01" y2="240.58"/>
        <line class="halo line" x1="350.5" y1="692.01" x2="600.5" y2="258.99"/>
        <line class="halo line" x1="314.8" y1="667.01" x2="636.2" y2="283.99"/>
        <line class="halo line" x1="283.99" y1="636.2" x2="667.01" y2="314.8"/>
        <line class="halo line" x1="258.99" y1="600.5" x2="692.01" y2="350.5"/>
        <line class="halo line" x1="240.58" y1="561.01" x2="710.42" y2="389.99"/>
        <line class="halo line" x1="229.3" y1="518.91" x2="721.7" y2="432.09"/>
        <line class="halo line" x1="225.5" y1="475.5" x2="725.5" y2="475.5"/>
        <line class="halo line" x1="229.3" y1="432.09" x2="721.7" y2="518.91"/>
        <line class="halo line" x1="240.58" y1="389.99" x2="710.42" y2="561.01"/>
        <line class="halo line" x1="258.99" y1="350.5" x2="692.01" y2="600.5"/>
        <line class="halo line" x1="283.99" y1="314.8" x2="667.01" y2="636.2"/>
        <line class="halo line" x1="314.8" y1="283.99" x2="636.2" y2="667.01"/>
        <line class="halo line" x1="350.5" y1="258.99" x2="600.5" y2="692.01"/>
        <line class="halo line" x1="475.5" y1="225.5" x2="475.5" y2="725.5"/>
        <line class="halo line" x1="389.99" y1="240.58" x2="561.01" y2="710.42"/>
        <line class="halo line" x1="432.09" y1="229.3" x2="518.91" y2="721.7"/>
        <line class="halo line" x1="457.82" y1="273.36" x2="493.18" y2="677.64"/>
        <line class="halo line" x1="422.98" y1="279.5" x2="528.02" y2="671.5"/>
        <line class="halo line" x1="389.75" y1="291.6" x2="561.25" y2="659.4"/>
        <line class="halo line" x1="359.12" y1="309.29" x2="591.88" y2="641.71"/>
        <line class="halo line" x1="332.02" y1="332.02" x2="618.98" y2="618.98"/>
        <line class="halo line" x1="309.29" y1="359.12" x2="641.71" y2="591.88"/>
        <line class="halo line" x1="291.6" y1="389.75" x2="659.4" y2="561.25"/>
        <line class="halo line" x1="279.5" y1="422.98" x2="671.5" y2="528.02"/>
        <line class="halo line" x1="273.36" y1="457.82" x2="677.64" y2="493.18"/>
        <line class="halo line" x1="273.36" y1="493.18" x2="677.64" y2="457.82"/>
        <line class="halo line" x1="279.5" y1="528.02" x2="671.5" y2="422.98"/>
        <line class="halo line" x1="291.6" y1="561.25" x2="659.4" y2="389.75"/>
        <line class="halo line" x1="309.29" y1="591.88" x2="641.71" y2="359.12"/>
        <line class="halo line" x1="332.02" y1="618.98" x2="618.98" y2="332.02"/>
        <line class="halo line" x1="359.12" y1="641.71" x2="591.88" y2="309.29"/>
        <line class="halo line" x1="389.75" y1="659.4" x2="561.25" y2="291.6"/>
        <line class="halo line" x1="422.98" y1="671.5" x2="528.02" y2="279.5"/>
        <line class="halo line" x1="457.82" y1="677.64" x2="493.18" y2="273.36"/>
        <polygon class="star line" points="436.73 381.89 475.5 272.86 514.27 381.89 618.79 332.21 569.11 436.73 678.14 475.5 569.11 514.27 618.79 618.79 514.27 569.11 475.5 678.14 436.73 569.11 332.21 618.79 381.89 514.27 272.86 475.5 381.89 436.73 332.21 332.21 436.73 381.89"/>
        <circle class="colored" cx="475.5" cy="475.5" r="114.16"/>
        <circle class="dotted line" cx="475.5" cy="475.5" r="99.89"/>
    </g>
</svg>