<svg xmlns="http://www.w3.org/2000/svg" viewBox="0 0 686.15 686.15">
    <defs>
        <style>.cls-1,.cls-2{fill:none;}.cls-1,.cls-2,.cls-3{stroke:#f4b322;stroke-miterlimit:10;}.cls-2{stroke-width:20px;stroke-dasharray:0.99 29.74;}.cls-3{fill:#2f2e2d;}</style>
    </defs>
    <g id="Layer_circle" data-name="Layer 2">
        <circle class="cls-1" cx="343.08" cy="343.08" r="200"/>
        <circle class="cls-1" cx="343.08" cy="343.08" r="250"/>
        <circle class="cls-2" cx="343.08" cy="343.08" r="225"/>
    </g>
    <g id="Layer_star" data-name="Layer 4">
        <polygon class="cls-3" points="343.08 291.03 527.08 159.08 395.12 343.08 527.08 527.08 343.08 395.12 159.08 527.08 291.03 343.08 159.08 159.08 343.08 291.03"/>
        <polygon class="cls-3" points="294.99 294.99 343.08 3.08 391.16 294.99 683.08 343.08 391.16 391.16 343.08 683.08 294.99 391.16 3.08 343.08 294.99 294.99"/>
        <line class="cls-1" x1="159.08" y1="159.08" x2="527.08" y2="527.08"/>
        <line class="cls-1" x1="159.08" y1="527.08" x2="527.08" y2="159.08"/>
        <line class="cls-1" x1="343.08" y1="2.58" x2="343.08" y2="683.58"/>
        <line class="cls-1" x1="2.58" y1="343.08" x2="683.58" y2="343.08"/>
        <polygon class="cls-1" points="385.58 260.58 300.58 260.58 260.58 300.58 260.58 385.58 300.58 425.58 385.58 425.58 425.58 385.58 425.58 300.58 385.58 260.58"/>
    </g>
</svg>