<?xml version="1.0" encoding="utf-8"?>
<!-- Generator: Adobe Illustrator 24.2.1, SVG Export Plug-In . SVG Version: 6.00 Build 0)  -->
<svg version="1.1" id="github-svg" xmlns="http://www.w3.org/2000/svg" xmlns:xlink="http://www.w3.org/1999/xlink" x="0px" y="0px"
	 viewBox="0 0 530 530" style="enable-background:new 0 0 530 530;" xml:space="preserve">
<style type="text/css">
	.st0{fill:none;stroke:#F2ECE4;stroke-width:15;stroke-miterlimit:10;}
</style>
<path class="st0" d="M185.5,407.8c0,1.9-2.2,3.5-5,3.5c-3.2,0.3-5.4-1.3-5.4-3.5c0-1.9,2.2-3.5,5-3.5C183,404.1,185.5,405.6,185.5,407.8z M155.5,403.5c-0.7,1.9,1.3,4.2,4.2,4.7c2.5,1,5.4,0,6-1.9c0.6-1.9-1.3-4.2-4.2-5C158.9,400.6,156.1,401.5,155.5,403.5L155.5,403.5z M198.2,401.8c-2.8,0.7-4.7,2.5-4.5,4.7c0.3,1.9,2.8,3.2,5.7,2.5c2.8-0.7,4.7-2.5,4.5-4.5C203.6,402.8,201,401.5,198.2,401.8z M261.9,31C127.7,31,25,132.9,25,267.1c0,107.3,67.5,199.2,164,231.5c12.4,2.2,16.7-5.4,16.7-11.7c0-6-0.3-39.1-0.3-59.4c0,0-67.7,14.5-82-28.8c0,0-11-28.2-26.9-35.4c0,0-22.2-15.2,1.5-14.9c0,0,24.1,1.9,37.4,25c21.2,37.4,56.7,26.6,70.5,20.2c2.2-15.5,8.5-26.2,15.5-32.6c-54.1-6-108.7-13.8-108.7-106.9c0-26.6,7.4-40,22.8-57c-2.5-6.3-10.7-32.2,2.5-65.7c20.2-6.3,66.8,26.1,66.8,26.1c19.4-5.4,40.2-8.2,60.8-8.2s41.4,2.8,60.8,8.2c0,0,46.5-32.5,66.8-26.1c13.3,33.6,5,59.4,2.5,65.7c15.5,17.1,25,30.5,25,57c0,93.4-57,100.8-111.1,106.9c8.9,7.6,16.5,22.2,16.5,44.9c0,32.6-0.3,73-0.3,80.9c0,6.3,4.5,13.9,16.7,11.7c96.8-32.1,162.4-124,162.4-231.3C505,132.9,396.1,31,261.9,31z M119.1,364.8c-1.3,1-1,3.2,0.7,5c1.5,1.5,3.8,2.2,5,1c1.3-1,1-3.2-0.7-5C122.5,364.2,120.3,363.5,119.1,364.8z M108.6,356.9c-0.7,1.3,0.3,2.8,2.2,3.8c1.5,1,3.5,0.7,4.2-0.7c0.7-1.3-0.3-2.8-2.2-3.8C110.8,355.7,109.3,356,108.6,356.9z M140,391.4c-1.5,1.3-1,4.2,1.3,6c2.2,2.2,5,2.5,6.3,1c1.3-1.3,0.7-4.2-1.3-6C144.1,390.1,141.2,389.8,140,391.4z M128.9,377.2c-1.5,1-1.5,3.5,0,5.7s4.2,3.2,5.4,2.2c1.5-1.3,1.5-3.8,0-6C133,376.9,130.5,375.9,128.9,377.2L128.9,377.2z"/>
</svg>
