<svg xmlns="http://www.w3.org/2000/svg" viewBox="0 0 1850 2500">
<path fill="#5382A1" d="M682.653,1654.807c0,0-70.567,41.037,50.223,54.923c146.337,16.693,221.124,14.303,382.389-16.223
	c0,0,42.4,26.585,101.605,49.613C855.366,1898.056,398.705,1734.144,682.653,1654.807 M638.478,1452.622
	c0,0-79.149,58.591,41.732,71.092c156.319,16.126,279.767,17.446,493.383-23.687c0,0,29.547,29.953,76.006,46.335
	C812.511,1674.173,325.678,1556.441,638.478,1452.622"/>
<path fill="#E76F00" d="M1010.884,1109.655c89.078,102.553-23.402,194.839-23.402,194.839s226.176-116.759,122.303-262.974
	c-97.013-136.344-171.414-204.099,231.346-437.68c0,0-632.198,157.891-330.246,505.809"/>
<path fill="#5382A1" d="M1489.008,1804.353c0,0,52.222,43.025-57.517,76.314c-208.664,63.216-868.495,82.304-1051.794,2.519
	c-65.889-28.659,57.676-68.439,96.542-76.791c40.534-8.79,63.702-7.148,63.702-7.148
	c-73.278-51.624-473.638,101.359-203.361,145.166C1073.655,2063.945,1680.193,1890.591,1489.008,1804.353 M716.583,1243.14
	c0,0-335.625,79.721-118.849,108.663c91.526,12.255,273.987,9.485,443.947-4.759c138.899-11.71,278.372-36.626,278.372-36.626
	s-48.978,20.976-84.411,45.17c-340.828,89.64-999.246,47.939-809.696-43.753c160.303-77.486,290.643-68.696,290.643-68.696
	 M1318.669,1579.679c346.474-180.038,186.277-353.051,74.465-329.738c-27.408,5.699-39.625,10.641-39.625,10.641
	s10.175-15.934,29.604-22.831c221.198-77.77,391.318,229.362-71.406,351.002C1311.707,1588.758,1317.069,1583.967,1318.669,1579.679
	"/>
<path fill="#E76F00" d="M1109.784,226.66c0,0,191.881,191.951-181.99,487.1c-299.802,236.769-68.365,371.765-0.122,526.006
	c-175.002-157.893-303.433-296.889-217.269-426.25c126.458-189.902,476.798-281.969,399.381-586.86"/>
<path fill="#5382A1" d="M750.632,2067.539c332.568,21.291,843.258-11.812,855.353-169.174c0,0-23.248,59.66-274.848,107.033
	c-283.853,53.414-633.941,47.18-841.585,12.944c0.005,0,42.507,35.182,261.085,49.196"/>
</svg>
