<?xml version="1.0" encoding="utf-8"?>
<!-- Generator: Adobe Illustrator 24.2.1, SVG Export Plug-In . SVG Version: 6.00 Build 0)  -->
<svg version="1.1" id="mail-svg" xmlns="http://www.w3.org/2000/svg" xmlns:xlink="http://www.w3.org/1999/xlink" x="0px" y="0px"
	 viewBox="0 0 530 530" style="enable-background:new 0 0 530 530;" xml:space="preserve">
<style type="text/css">
	.st0{fill:none;stroke:#F2ECE4;stroke-width:15;stroke-miterlimit:10;}
</style>
<path class="st0" d="M460,85c24.9,0,45,20.2,45,45c0,14.2-6.7,27.4-18,36L283,318.9c-10.7,7.9-25.3,7.9-36,0l-204-153c-11.4-8.5-18-21.8-18-36c0-24.9,20.2-45,45-45C70,85,460,85,460,85z M229,342.9c21.4,16.1,50.6,16.1,72,0l204-153v195c0,33.1-26.9,60-60,60H85c-33.1,0-60-26.9-60-60v-195L229,342.9z"/>
</svg>
